<svg width="17" height="16" viewBox="0 0 17 16" fill="none" xmlns="http://www.w3.org/2000/svg">
<path d="M5.22018 8.5238C5.22018 9.28854 5.78892 9.91212 6.47841 9.91212C7.17898 9.91212 7.73664 9.28913 7.73664 8.5238C7.74772 7.76373 7.18423 7.13549 6.47841 7.13549C5.77784 7.13549 5.22018 7.75848 5.22018 8.5238Z" fill="#E6EAFF" fill-opacity="0.6"/>
<path d="M9.87219 8.5238C9.87219 9.28854 10.4403 9.91212 11.1304 9.91212C11.8368 9.91212 12.3886 9.28913 12.3886 8.5238C12.3997 7.76373 11.8362 7.13549 11.1304 7.13549C10.4293 7.13549 9.87219 7.75848 9.87219 8.5238Z" fill="#E6EAFF" fill-opacity="0.6"/>
<path fill-rule="evenodd" clip-rule="evenodd" d="M1.80005 0C1.24776 0 0.800049 0.447715 0.800049 1V15C0.800049 15.5523 1.24776 16 1.80005 16H15.8C16.3523 16 16.8 15.5523 16.8 15V1C16.8 0.447715 16.3523 0 15.8 0H1.80005ZM10.802 2.75123C11.8024 2.9204 12.7591 3.21789 13.6515 3.62039C13.6593 3.62349 13.6657 3.62928 13.6696 3.63672C15.251 5.92451 16.0315 8.50631 15.7398 11.4778C15.7392 11.484 15.7371 11.4901 15.7339 11.4955C15.7307 11.501 15.7263 11.5056 15.7212 11.5093C14.6605 12.282 13.4767 12.8699 12.2201 13.2481C12.2112 13.2508 12.2018 13.2506 12.193 13.2477C12.1842 13.2448 12.1766 13.2392 12.1711 13.2318C11.9068 12.8696 11.6665 12.4881 11.4565 12.0873C11.4536 12.0818 11.452 12.0757 11.4517 12.0695C11.4513 12.0633 11.4523 12.0571 11.4546 12.0513C11.4569 12.0455 11.4603 12.0402 11.4648 12.0359C11.4692 12.0316 11.4746 12.0282 11.4804 12.0261C11.8613 11.8849 12.2241 11.7152 12.573 11.5145C12.5792 11.5108 12.5844 11.5056 12.5881 11.4994C12.5919 11.4932 12.594 11.4862 12.5943 11.479C12.5947 11.4718 12.5932 11.4646 12.5901 11.458C12.587 11.4515 12.5823 11.4459 12.5765 11.4416C12.5024 11.3873 12.4295 11.3308 12.3595 11.2736C12.3531 11.2685 12.3453 11.2653 12.3372 11.2644C12.329 11.2634 12.3208 11.2648 12.3134 11.2683C10.0495 12.2973 7.56864 12.2973 5.27793 11.2683C5.27055 11.265 5.26239 11.2638 5.25435 11.2648C5.24632 11.2658 5.23873 11.2691 5.23243 11.2742C5.16243 11.3308 5.08893 11.3873 5.01543 11.4416C5.00965 11.446 5.00504 11.4517 5.00202 11.4583C4.999 11.4648 4.99766 11.4721 4.99813 11.4793C4.99859 11.4865 5.00084 11.4935 5.00467 11.4997C5.00851 11.5058 5.01381 11.5109 5.0201 11.5145C5.37014 11.7135 5.73526 11.8848 6.11208 12.0267C6.13658 12.036 6.14825 12.064 6.136 12.0873C5.93067 12.4887 5.69034 12.8707 5.42084 13.2324C5.41515 13.2396 5.40743 13.2448 5.39868 13.2475C5.38994 13.2502 5.38059 13.2503 5.37184 13.2476C4.11731 12.8683 2.93553 12.2807 1.87598 11.5093C1.87095 11.5054 1.86675 11.5006 1.86364 11.4951C1.86053 11.4896 1.85858 11.4835 1.8579 11.4772C1.61349 8.90705 2.11106 6.30426 3.92637 3.63555C3.93084 3.62852 3.93735 3.62302 3.94503 3.6198C4.8381 3.21673 5.79475 2.91923 6.79457 2.75007C6.80359 2.74864 6.81284 2.74999 6.82107 2.75395C6.82931 2.75791 6.83614 2.76429 6.84065 2.77223C6.97385 3.00453 7.09401 3.24406 7.20056 3.48972C8.26157 3.33119 9.34025 3.33119 10.4013 3.48972C10.4969 3.26806 10.6334 2.98748 10.7559 2.77223C10.7605 2.76439 10.7674 2.75815 10.7756 2.75439C10.7839 2.75062 10.7931 2.74952 10.802 2.75123Z" fill="#E6EAFF" fill-opacity="0.6"/>
</svg>
