<svg width="17" height="16" viewBox="0 0 17 16" fill="none" xmlns="http://www.w3.org/2000/svg">
<path d="M16.16 0H1.44005C1.08605 0 0.800049 0.286 0.800049 0.64V15.36C0.800049 15.714 1.08605 16 1.44005 16H16.16C16.514 16 16.8 15.714 16.8 15.36V0.64C16.8 0.286 16.514 0 16.16 0ZM14.312 4.67H13.034C12.032 4.67 11.838 5.146 11.838 5.846V7.388H14.23L13.918 9.802H11.838V16H9.34405V9.804H7.25805V7.388H9.34405V5.608C9.34405 3.542 10.606 2.416 12.45 2.416C13.334 2.416 14.092 2.482 14.314 2.512V4.67H14.312Z" fill="#E6EAFF" fill-opacity="0.6"/>
</svg>
