<svg width="64" height="64" viewBox="0 0 64 64" fill="none" xmlns="http://www.w3.org/2000/svg">
<rect width="64" height="64" rx="32" fill="#CCD5FF" fill-opacity="0.05"/>
<path fill-rule="evenodd" clip-rule="evenodd" d="M24.5 24.5C24.5 22.0147 26.5147 20 29 20H35C37.4853 20 39.5 22.0147 39.5 24.5V26H41C42.6569 26 44 27.3431 44 29V35H20V29C20 27.3431 21.3431 26 23 26H24.5V24.5ZM36.5 24.5V26H27.5V24.5C27.5 23.6716 28.1716 23 29 23H35C35.8284 23 36.5 23.6716 36.5 24.5Z" fill="url(#paint0_linear_1037_7425)"/>
<path d="M20 38V41C20 42.6569 21.3431 44 23 44H41C42.6569 44 44 42.6569 44 41V38H36.5C35.6716 38 35 38.6716 35 39.5C35 40.3284 34.3284 41 33.5 41H30.5C29.6716 41 29 40.3284 29 39.5C29 38.6716 28.3284 38 27.5 38H20Z" fill="url(#paint1_linear_1037_7425)"/>
<defs>
<linearGradient id="paint0_linear_1037_7425" x1="32" y1="44" x2="32" y2="20" gradientUnits="userSpaceOnUse">
<stop stop-color="#FF3C8E"/>
<stop offset="1" stop-color="#A400F1"/>
</linearGradient>
<linearGradient id="paint1_linear_1037_7425" x1="32" y1="44" x2="32" y2="20" gradientUnits="userSpaceOnUse">
<stop stop-color="#FF3C8E"/>
<stop offset="1" stop-color="#A400F1"/>
</linearGradient>
</defs>
</svg>
