<svg width="17" height="16" viewBox="0 0 17 16" fill="none" xmlns="http://www.w3.org/2000/svg">
<path d="M16.16 0H1.44005C1.08605 0 0.800049 0.286 0.800049 0.64V15.36C0.800049 15.714 1.08605 16 1.44005 16H16.16C16.514 16 16.8 15.714 16.8 15.36V0.64C16.8 0.286 16.514 0 16.16 0ZM5.54605 13.634H3.17205V5.998H5.54605V13.634ZM4.36005 4.954C4.0879 4.954 3.82187 4.8733 3.59558 4.7221C3.3693 4.57091 3.19294 4.356 3.08879 4.10457C2.98464 3.85314 2.9574 3.57647 3.01049 3.30956C3.06358 3.04264 3.19463 2.79746 3.38707 2.60502C3.57951 2.41258 3.82469 2.28153 4.0916 2.22844C4.35852 2.17535 4.63519 2.2026 4.88662 2.30674C5.13805 2.41089 5.35295 2.58725 5.50415 2.81354C5.65535 3.03982 5.73605 3.30585 5.73605 3.578C5.73405 4.338 5.11805 4.954 4.36005 4.954ZM14.4341 13.634H12.062V9.92C12.062 9.034 12.0461 7.896 10.828 7.896C9.59405 7.896 9.40405 8.86 9.40405 9.856V13.634H7.03405V5.998H9.31005V7.042H9.34205C9.65805 6.442 10.432 5.808 11.588 5.808C13.9921 5.808 14.4341 7.39 14.4341 9.446V13.634Z" fill="#E6EAFF" fill-opacity="0.6"/>
</svg>
