<svg width="131" height="17" viewBox="0 0 131 17" fill="none" xmlns="http://www.w3.org/2000/svg">
<path d="M5.5842 15.732H3.7228C3.3978 15.732 3.23529 15.5769 3.23529 15.2666V4.1647C3.23529 4.0022 3.15404 3.92095 2.99154 3.92095H0.46535C0.155117 3.92095 0 3.76583 0 3.4556V1.94875C0 1.63851 0.155117 1.4834 0.46535 1.4834H8.84166C9.15189 1.4834 9.30701 1.63851 9.30701 1.94875V3.4556C9.30701 3.76583 9.15189 3.92095 8.84166 3.92095H6.31547C6.13819 3.92095 6.04956 4.0022 6.04956 4.1647V15.2666C6.04956 15.5769 5.89444 15.732 5.5842 15.732Z" fill="white"/>
<path d="M13.348 15.732H11.4644C11.1542 15.732 10.9991 15.5769 10.9991 15.2666V1.94875C10.9991 1.63851 11.1542 1.4834 11.4644 1.4834H13.348C13.6582 1.4834 13.8134 1.63851 13.8134 1.94875V7.15624C13.8134 7.31874 13.902 7.39999 14.0793 7.39999H17.8242C17.9867 7.39999 18.068 7.31874 18.068 7.15624V1.94875C18.068 1.63851 18.2231 1.4834 18.5333 1.4834H20.4169C20.7271 1.4834 20.8823 1.63851 20.8823 1.94875V15.2666C20.8823 15.5769 20.7271 15.732 20.4169 15.732H18.5333C18.2231 15.732 18.068 15.5769 18.068 15.2666V10.0813C18.068 9.9188 17.9867 9.83755 17.8242 9.83755H14.0793C13.902 9.83755 13.8134 9.9188 13.8134 10.0813V15.2666C13.8134 15.5769 13.6582 15.732 13.348 15.732Z" fill="white"/>
<path d="M31.4783 15.732H24.2321C23.9219 15.732 23.7668 15.5769 23.7668 15.2666V1.94875C23.7668 1.63851 23.9219 1.4834 24.2321 1.4834H31.4783C31.7738 1.4834 31.9215 1.63851 31.9215 1.94875V3.4556C31.9215 3.76583 31.7738 3.92095 31.4783 3.92095H26.847C26.6697 3.92095 26.5811 4.0022 26.5811 4.1647V7.04544C26.5811 7.20794 26.6697 7.2892 26.847 7.2892H30.6363C30.9465 7.2892 31.1016 7.44431 31.1016 7.75455V9.2614C31.1016 9.57163 30.9465 9.72675 30.6363 9.72675H26.847C26.6697 9.72675 26.5811 9.808 26.5811 9.9705V13.0507C26.5811 13.2132 26.6697 13.2944 26.847 13.2944H31.4783C31.7738 13.2944 31.9215 13.4495 31.9215 13.7598V15.2666C31.9215 15.5769 31.7738 15.732 31.4783 15.732Z" fill="white"/>
<path d="M54.7198 15.732H52.8362C52.526 15.732 52.3708 15.5769 52.3708 15.2666V1.94875C52.3708 1.63851 52.526 1.4834 52.8362 1.4834H58.2431C59.3954 1.4834 60.2892 1.80102 60.9244 2.43626C61.5597 3.05673 61.8773 3.94311 61.8773 5.0954V7.22272C61.8773 8.37501 61.5597 9.26878 60.9244 9.90402C60.2892 10.5245 59.3954 10.8347 58.2431 10.8347H55.451C55.2737 10.8347 55.1851 10.916 55.1851 11.0785V15.2666C55.1851 15.5769 55.03 15.732 54.7198 15.732ZM55.4289 8.37501H57.7778C58.2505 8.37501 58.5829 8.27899 58.775 8.08694C58.967 7.88012 59.063 7.54773 59.063 7.08976V5.22836C59.063 4.75562 58.967 4.42323 58.775 4.23118C58.5829 4.02436 58.2505 3.92095 57.7778 3.92095H55.4289C55.2664 3.92095 55.1851 4.0022 55.1851 4.1647V8.13126C55.1851 8.29376 55.2664 8.37501 55.4289 8.37501Z" fill="white"/>
<path d="M71.8773 15.732H64.5868C64.2766 15.732 64.1215 15.5769 64.1215 15.2666V1.94875C64.1215 1.63851 64.2766 1.4834 64.5868 1.4834H66.4704C66.7806 1.4834 66.9357 1.63851 66.9357 1.94875V13.0285C66.9357 13.191 67.0244 13.2723 67.2016 13.2723H71.8773C72.1728 13.2723 72.3205 13.4348 72.3205 13.7598V15.2666C72.3205 15.5769 72.1728 15.732 71.8773 15.732Z" fill="white"/>
<path d="M75.5606 15.732H73.4333C73.1674 15.732 73.0788 15.5769 73.1674 15.2666L76.6686 1.94875C76.772 1.63851 76.9936 1.4834 77.3334 1.4834H80.2806C80.6499 1.4834 80.8715 1.63851 80.9454 1.94875L84.4466 15.2666C84.5352 15.5769 84.4466 15.732 84.1807 15.732H82.0534C81.8909 15.732 81.7801 15.7024 81.721 15.6433C81.6619 15.5695 81.6176 15.4439 81.588 15.2666L80.9676 12.8291H76.6465L76.026 15.2666C75.9964 15.4439 75.9447 15.5695 75.8709 15.6433C75.8118 15.7024 75.7084 15.732 75.5606 15.732ZM78.7738 4.1647L77.1783 10.5688H80.4579L78.8624 4.1647H78.7738Z" fill="white"/>
<path d="M92.261 15.732H89.8456C88.6785 15.732 87.7773 15.4217 87.1421 14.8013C86.5069 14.1808 86.1892 13.287 86.1892 12.12V5.0954C86.1892 3.92833 86.5069 3.03457 87.1421 2.4141C87.7773 1.79363 88.6785 1.4834 89.8456 1.4834H92.261C93.4133 1.4834 94.307 1.80102 94.9423 2.43626C95.5923 3.05673 95.9173 3.94311 95.9173 5.0954V6.1369C95.9173 6.46191 95.7548 6.62441 95.4298 6.62441H93.5684C93.2581 6.62441 93.103 6.46191 93.103 6.1369V5.22836C93.103 4.75562 92.9996 4.42323 92.7928 4.23118C92.6007 4.02436 92.2683 3.92095 91.7956 3.92095H90.2888C89.8308 3.92095 89.4984 4.02436 89.2916 4.23118C89.0995 4.42323 89.0035 4.75562 89.0035 5.22836V11.987C89.0035 12.4598 89.0995 12.7995 89.2916 13.0064C89.4984 13.1984 89.8308 13.2944 90.2888 13.2944H91.7956C92.2683 13.2944 92.6007 13.1984 92.7928 13.0064C92.9996 12.7995 93.103 12.4598 93.103 11.987V11.0785C93.103 10.7535 93.2581 10.591 93.5684 10.591H95.4298C95.7548 10.591 95.9173 10.7535 95.9173 11.0785V12.12C95.9173 13.2723 95.5923 14.166 94.9423 14.8013C94.307 15.4217 93.4133 15.732 92.261 15.732Z" fill="white"/>
<path d="M106.046 15.732H98.7999C98.4897 15.732 98.3346 15.5769 98.3346 15.2666V1.94875C98.3346 1.63851 98.4897 1.4834 98.7999 1.4834H106.046C106.342 1.4834 106.489 1.63851 106.489 1.94875V3.4556C106.489 3.76583 106.342 3.92095 106.046 3.92095H101.415C101.237 3.92095 101.149 4.0022 101.149 4.1647V7.04544C101.149 7.20794 101.237 7.2892 101.415 7.2892H105.204C105.514 7.2892 105.669 7.44431 105.669 7.75455V9.2614C105.669 9.57163 105.514 9.72675 105.204 9.72675H101.415C101.237 9.72675 101.149 9.808 101.149 9.9705V13.0507C101.149 13.2132 101.237 13.2944 101.415 13.2944H106.046C106.342 13.2944 106.489 13.4495 106.489 13.7598V15.2666C106.489 15.5769 106.342 15.732 106.046 15.732Z" fill="white"/>
<path d="M38.5506 7.74569L34.0259 3.22094L36.5928 0.654053L41.1175 5.17881V7.74569H38.5506Z" fill="#00FF47"/>
<path d="M42.9326 5.17881V7.74569H45.4995L50.0242 3.22094L47.4573 0.654053L42.9326 5.17881Z" fill="#00FF47"/>
<path d="M45.4995 9.56075H42.9326V12.1276L47.4573 16.6524L50.0242 14.0855L45.4995 9.56075Z" fill="#00FF47"/>
<path d="M41.1175 12.1276L36.5928 16.6524L34.0259 14.0855L38.5506 9.56075H41.1175V12.1276Z" fill="#00FF47"/>
<path d="M112.802 1.34546V6.18588H115.015C115.845 6.18588 116.44 5.68801 116.44 4.87206C116.44 4.15291 115.97 3.87631 115.624 3.7795V3.71035C115.97 3.60663 116.412 3.33695 116.412 2.63163C116.412 1.84333 115.831 1.34546 114.988 1.34546H112.802ZM113.715 2.17525H114.891C115.278 2.17525 115.541 2.39652 115.541 2.7561C115.541 3.11567 115.278 3.33695 114.891 3.33695H113.715V2.17525ZM113.715 4.16674H114.905C115.306 4.16674 115.568 4.38801 115.568 4.76142C115.568 5.13482 115.306 5.3561 114.905 5.3561H113.715V4.16674Z" fill="#E6EAFF" fill-opacity="0.6"/>
<path d="M117.742 1.34546V6.18588H120.964V5.3561H118.654V4.15982H120.729V3.33003H118.654V2.17525H120.922V1.34546H117.742Z" fill="#E6EAFF" fill-opacity="0.6"/>
<path d="M121.903 1.34546V2.17525H123.369V6.18588H124.281V2.17525H125.747V1.34546H121.903Z" fill="#E6EAFF" fill-opacity="0.6"/>
<path d="M127.453 1.34546L126.098 6.18588H127.031L127.322 5.10716H129.009L129.299 6.18588H130.233L128.878 1.34546H127.453ZM127.543 4.27737L128.131 2.09227H128.2L128.788 4.27737H127.543Z" fill="#E6EAFF" fill-opacity="0.6"/>
</svg>
