<svg width="189" height="24" viewBox="0 0 189 24" fill="none" xmlns="http://www.w3.org/2000/svg">
<path d="M8.07562 21.8049H5.38375C4.91374 21.8049 4.67873 21.5805 4.67873 21.1319V5.0768C4.67873 4.84179 4.56123 4.72429 4.32622 4.72429H0.672968C0.224323 4.72429 0 4.49997 0 4.05132V1.87219C0 1.42354 0.224323 1.19922 0.672968 1.19922H12.7864C13.235 1.19922 13.4594 1.42354 13.4594 1.87219V4.05132C13.4594 4.49997 13.235 4.72429 12.7864 4.72429H9.13314C8.87677 4.72429 8.74859 4.84179 8.74859 5.0768V21.1319C8.74859 21.5805 8.52426 21.8049 8.07562 21.8049Z" fill="white"/>
<path d="M19.3033 21.8049H16.5794C16.1307 21.8049 15.9064 21.5805 15.9064 21.1319V1.87219C15.9064 1.42354 16.1307 1.19922 16.5794 1.19922H19.3033C19.7519 1.19922 19.9762 1.42354 19.9762 1.87219V9.40302C19.9762 9.63803 20.1044 9.75553 20.3608 9.75553H25.7766C26.0116 9.75553 26.1291 9.63803 26.1291 9.40302V1.87219C26.1291 1.42354 26.3534 1.19922 26.8021 1.19922H29.526C29.9746 1.19922 30.1989 1.42354 30.1989 1.87219V21.1319C30.1989 21.5805 29.9746 21.8049 29.526 21.8049H26.8021C26.3534 21.8049 26.1291 21.5805 26.1291 21.1319V13.6331C26.1291 13.3981 26.0116 13.2806 25.7766 13.2806H20.3608C20.1044 13.2806 19.9762 13.3981 19.9762 13.6331V21.1319C19.9762 21.5805 19.7519 21.8049 19.3033 21.8049Z" fill="white"/>
<path d="M45.5225 21.8049H35.0434C34.5948 21.8049 34.3704 21.5805 34.3704 21.1319V1.87219C34.3704 1.42354 34.5948 1.19922 35.0434 1.19922H45.5225C45.9498 1.19922 46.1634 1.42354 46.1634 1.87219V4.05132C46.1634 4.49997 45.9498 4.72429 45.5225 4.72429H38.8249C38.5685 4.72429 38.4403 4.84179 38.4403 5.0768V9.24279C38.4403 9.47779 38.5685 9.5953 38.8249 9.5953H44.3047C44.7534 9.5953 44.9777 9.81962 44.9777 10.2683V12.4474C44.9777 12.896 44.7534 13.1204 44.3047 13.1204H38.8249C38.5685 13.1204 38.4403 13.2379 38.4403 13.4729V17.9273C38.4403 18.1623 38.5685 18.2798 38.8249 18.2798H45.5225C45.9498 18.2798 46.1634 18.5041 46.1634 18.9528V21.1319C46.1634 21.5805 45.9498 21.8049 45.5225 21.8049Z" fill="white"/>
<path d="M79.1333 21.8049H76.4094C75.9608 21.8049 75.7365 21.5805 75.7365 21.1319V1.87219C75.7365 1.42354 75.9608 1.19922 76.4094 1.19922H84.2287C85.8951 1.19922 87.1876 1.65855 88.1062 2.5772C89.0249 3.47449 89.4842 4.75634 89.4842 6.42273V9.49916C89.4842 11.1656 89.0249 12.4581 88.1062 13.3767C87.1876 14.274 85.8951 14.7227 84.2287 14.7227H80.1909C79.9345 14.7227 79.8063 14.8402 79.8063 15.0752V21.1319C79.8063 21.5805 79.582 21.8049 79.1333 21.8049ZM80.1588 11.1656H83.5557C84.2393 11.1656 84.72 11.0267 84.9978 10.749C85.2755 10.4499 85.4144 9.96917 85.4144 9.30688V6.61501C85.4144 5.93136 85.2755 5.45067 84.9978 5.17293C84.72 4.87384 84.2393 4.72429 83.5557 4.72429H80.1588C79.9238 4.72429 79.8063 4.84179 79.8063 5.0768V10.813C79.8063 11.0481 79.9238 11.1656 80.1588 11.1656Z" fill="white"/>
<path d="M103.946 21.8049H93.4026C92.954 21.8049 92.7296 21.5805 92.7296 21.1319V1.87219C92.7296 1.42354 92.954 1.19922 93.4026 1.19922H96.1265C96.5752 1.19922 96.7995 1.42354 96.7995 1.87219V17.8952C96.7995 18.1302 96.9277 18.2477 97.1841 18.2477H103.946C104.373 18.2477 104.587 18.4828 104.587 18.9528V21.1319C104.587 21.5805 104.373 21.8049 103.946 21.8049Z" fill="white"/>
<path d="M109.272 21.8049H106.196C105.811 21.8049 105.683 21.5805 105.811 21.1319L110.875 1.87219C111.024 1.42354 111.345 1.19922 111.836 1.19922H116.098C116.632 1.19922 116.953 1.42354 117.06 1.87219L122.123 21.1319C122.251 21.5805 122.123 21.8049 121.738 21.8049H118.662C118.427 21.8049 118.267 21.7621 118.181 21.6767C118.096 21.5699 118.032 21.3883 117.989 21.1319L117.092 17.6068H110.843L109.945 21.1319C109.903 21.3883 109.828 21.5699 109.721 21.6767C109.636 21.7621 109.486 21.8049 109.272 21.8049ZM113.919 5.0768L111.612 14.3381H116.355L114.047 5.0768H113.919Z" fill="white"/>
<path d="M133.424 21.8049H129.931C128.243 21.8049 126.94 21.3562 126.021 20.4589C125.102 19.5616 124.643 18.2691 124.643 16.5813V6.42273C124.643 4.73497 125.102 3.44245 126.021 2.54515C126.94 1.64786 128.243 1.19922 129.931 1.19922H133.424C135.09 1.19922 136.383 1.65855 137.301 2.5772C138.241 3.47449 138.711 4.75634 138.711 6.42273V7.9289C138.711 8.39891 138.476 8.63391 138.006 8.63391H135.314C134.866 8.63391 134.641 8.39891 134.641 7.9289V6.61501C134.641 5.93136 134.492 5.45067 134.193 5.17293C133.915 4.87384 133.434 4.72429 132.751 4.72429H130.572C129.909 4.72429 129.429 4.87384 129.13 5.17293C128.852 5.45067 128.713 5.93136 128.713 6.61501V16.3891C128.713 17.0727 128.852 17.5641 129.13 17.8632C129.429 18.1409 129.909 18.2798 130.572 18.2798H132.751C133.434 18.2798 133.915 18.1409 134.193 17.8632C134.492 17.5641 134.641 17.0727 134.641 16.3891V15.0752C134.641 14.6052 134.866 14.3702 135.314 14.3702H138.006C138.476 14.3702 138.711 14.6052 138.711 15.0752V16.5813C138.711 18.2477 138.241 19.5403 137.301 20.4589C136.383 21.3562 135.09 21.8049 133.424 21.8049Z" fill="white"/>
<path d="M153.359 21.8049H142.88C142.431 21.8049 142.207 21.5805 142.207 21.1319V1.87219C142.207 1.42354 142.431 1.19922 142.88 1.19922H153.359C153.786 1.19922 154 1.42354 154 1.87219V4.05132C154 4.49997 153.786 4.72429 153.359 4.72429H146.661C146.405 4.72429 146.277 4.84179 146.277 5.0768V9.24279C146.277 9.47779 146.405 9.5953 146.661 9.5953H152.141C152.59 9.5953 152.814 9.81962 152.814 10.2683V12.4474C152.814 12.896 152.59 13.1204 152.141 13.1204H146.661C146.405 13.1204 146.277 13.2379 146.277 13.4729V17.9273C146.277 18.1623 146.405 18.2798 146.661 18.2798H153.359C153.786 18.2798 154 18.5041 154 18.9528V21.1319C154 21.5805 153.786 21.8049 153.359 21.8049Z" fill="white"/>
<path d="M55.7502 10.2556L49.2067 3.71211L52.9188 0L59.4623 6.54349V10.2556H55.7502Z" fill="#00FF47"/>
<path d="M62.0871 6.54349V10.2556H65.7992L72.3427 3.71211L68.6306 0L62.0871 6.54349Z" fill="#00FF47"/>
<path d="M65.7992 12.8805H62.0871V16.5926L68.6306 23.1361L72.3427 19.424L65.7992 12.8805Z" fill="#00FF47"/>
<path d="M59.4623 16.5926L52.9188 23.1361L49.2067 19.424L55.7502 12.8805H59.4623V16.5926Z" fill="#00FF47"/>
<path d="M163.13 1V8H166.33C167.53 8 168.39 7.28 168.39 6.1C168.39 5.06 167.71 4.66 167.21 4.52V4.42C167.71 4.27 168.35 3.88 168.35 2.86C168.35 1.72 167.51 1 166.29 1H163.13ZM164.45 2.2H166.15C166.71 2.2 167.09 2.52 167.09 3.04C167.09 3.56 166.71 3.88 166.15 3.88H164.45V2.2ZM164.45 5.08H166.17C166.75 5.08 167.13 5.4 167.13 5.94C167.13 6.48 166.75 6.8 166.17 6.8H164.45V5.08Z" fill="#E6EAFF" fill-opacity="0.6"/>
<path d="M170.272 1V8H174.932V6.8H171.592V5.07H174.592V3.87H171.592V2.2H174.872V1H170.272Z" fill="#E6EAFF" fill-opacity="0.6"/>
<path d="M176.29 1V2.2H178.41V8H179.73V2.2H181.85V1H176.29Z" fill="#E6EAFF" fill-opacity="0.6"/>
<path d="M184.317 1L182.357 8H183.707L184.127 6.44H186.567L186.987 8H188.337L186.377 1H184.317ZM184.447 5.24L185.297 2.08H185.397L186.247 5.24H184.447Z" fill="#E6EAFF" fill-opacity="0.6"/>
</svg>
