<svg width="17" height="16" viewBox="0 0 17 16" fill="none" xmlns="http://www.w3.org/2000/svg">
<path fill-rule="evenodd" clip-rule="evenodd" d="M1.80005 0C1.24776 0 0.800049 0.447715 0.800049 1V15C0.800049 15.5523 1.24776 16 1.80005 16H15.8C16.3523 16 16.8 15.5523 16.8 15V1C16.8 0.447715 16.3523 0 15.8 0H1.80005ZM14.0355 5.89598C14.0355 9.46 11.3194 13.5772 6.35494 13.5772C4.89048 13.5776 3.45644 13.1593 2.22192 12.3715C2.43242 12.3978 2.64818 12.4083 2.86395 12.4083C4.08008 12.41 5.26136 12.0021 6.21746 11.2506C5.65399 11.2404 5.10783 11.0542 4.65554 10.718C4.20326 10.3818 3.86752 9.91243 3.69542 9.3758C3.85921 9.40737 4.02761 9.42316 4.20193 9.42316C4.44195 9.42413 4.68098 9.39226 4.91237 9.32843C4.30182 9.20374 3.75304 8.87213 3.35873 8.3896C2.96441 7.90708 2.74875 7.30324 2.74817 6.68009V6.64326C3.12351 6.84985 3.5422 6.96523 3.97038 6.98005C3.39892 6.59773 2.99436 6.01227 2.83884 5.34253C2.68332 4.67279 2.78848 3.96897 3.13299 3.37394C3.81089 4.20821 4.65668 4.89058 5.61542 5.37675C6.57417 5.86293 7.62444 6.14203 8.69806 6.19594C8.65596 5.99597 8.62965 5.79073 8.62965 5.58024C8.63017 4.86405 8.9149 4.17736 9.42132 3.67094C9.92774 3.16452 10.6144 2.87979 11.3306 2.87927C11.6995 2.87922 12.0645 2.95492 12.4029 3.10168C12.7413 3.24844 13.046 3.46313 13.2981 3.73245C13.9037 3.61495 14.4845 3.39398 15.015 3.07924C14.8127 3.70523 14.3901 4.23652 13.8257 4.57444C14.3614 4.50948 14.8845 4.36561 15.3781 4.14753C15.0156 4.69091 14.5592 5.16537 14.0303 5.54866C14.0355 5.66441 14.0355 5.78023 14.0355 5.89598Z" fill="#E6EAFF" fill-opacity="0.6"/>
</svg>
