<svg width="24" height="19" viewBox="0 0 24 19" fill="none" xmlns="http://www.w3.org/2000/svg">
<path d="M11.2727 13.2727C11.2727 10.1818 8.90909 8 5.63636 8H4.72727V7.27273C4.72727 5.39394 5.81818 4.12121 7.81818 4.12121H10.3636V0H8.12121C2.48485 0 0 3.45454 0 8.12121V13.0303C0 16.6061 2.36364 18.8485 5.63636 18.8485C8.90909 18.8485 11.2727 16.6061 11.2727 13.2727ZM24 13.2727C24 10.1818 21.6364 8 18.3636 8H17.4545V7.27273C17.4545 5.39394 18.5455 4.12121 20.5455 4.12121H23.0909V0H20.8485C15.2121 0 12.7273 3.45454 12.7273 8.12121V13.0303C12.7273 16.6061 15.0909 18.8485 18.3636 18.8485C21.6364 18.8485 24 16.6061 24 13.2727Z" fill="url(#paint0_linear_1037_7474)"/>
<defs>
<linearGradient id="paint0_linear_1037_7474" x1="12" y1="18.8485" x2="12" y2="1.00412e-07" gradientUnits="userSpaceOnUse">
<stop stop-color="#FF3C8E"/>
<stop offset="1" stop-color="#A400F1"/>
</linearGradient>
</defs>
</svg>
